<svg width="26" height="20" fill="none" xmlns="http://www.w3.org/2000/svg"><path d="M2.43 10.186c.148-2.23 1.032-4.114 2.652-5.65 1.67-1.587 3.634-2.38 5.893-2.38V0C7.488 0 4.788 1.214 2.873 3.643.958 6.023 0 9.27 0 13.383c0 1.685.565 3.222 1.694 4.61C2.873 19.33 4.174 20 5.598 20c1.522 0 2.799-.52 3.83-1.561 1.031-1.09 1.546-2.38 1.546-3.867 0-1.536-.515-2.825-1.546-3.866-1.031-1.04-2.308-1.561-3.83-1.561a5.172 5.172 0 0 0-3.167 1.04Zm14.952 0c.197-2.23 1.105-4.114 2.726-5.65 1.67-1.587 3.633-2.38 5.892-2.38V0c-3.486 0-6.187 1.214-8.102 3.643-1.915 2.38-2.873 5.626-2.873 9.74 0 1.685.565 3.222 1.695 4.61C17.898 19.33 19.2 20 20.623 20c1.473 0 2.726-.52 3.757-1.561 1.08-1.09 1.62-2.38 1.62-3.867 0-1.536-.54-2.825-1.62-3.866-1.031-1.04-2.284-1.561-3.757-1.561a5.493 5.493 0 0 0-3.24 1.04Z" fill="#1B1B1B"/></svg>