<svg width="40" height="24" fill="none" xmlns="http://www.w3.org/2000/svg"><mask id="a" fill="#fff"><path d="M20.518 24C6.088 24 .4 11.846.4 11.846s2.804-5.332 8.752-8.841A21.383 21.383 0 0 1 17.569.154C18.341.063 19.139.01 19.967 0c1.016-.01 1.994.048 2.933.166 3.327.42 6.164 1.58 8.515 3.019 5.74 3.508 8.585 8.66 8.585 8.66S33.676 24 20.518 24Z"/></mask><path d="m.4 11.846-.885-.466-.231.44.21.45.906-.424Zm39.6 0 .887.461.248-.475-.26-.47-.875.484ZM9.151 3.005l-.508-.862.508.862Zm22.264.18-.521.854.521-.853ZM22.9.168l.125-.992-.125.992ZM19.967.001l-.011-1 .01 1Zm-2.398.153-.117-.993.117.993ZM.4 11.846a87.76 87.76 0 0 0-.905.425v.001l.002.003.005.01a4.5 4.5 0 0 0 .074.15c.05.099.124.24.221.417.196.354.489.852.885 1.447.791 1.189 2 2.77 3.68 4.352C7.729 21.822 12.992 25 20.518 25v-2c-6.905 0-11.7-2.9-14.785-5.805a23.275 23.275 0 0 1-3.386-4.004 18.744 18.744 0 0 1-.8-1.307 11.458 11.458 0 0 1-.24-.46l-.002-.003-.905.425ZM20.518 25c6.912 0 12.015-3.198 15.36-6.35a28.392 28.392 0 0 0 3.747-4.331 23.76 23.76 0 0 0 .936-1.438 15.345 15.345 0 0 0 .323-.568l.002-.004c0-.001.001-.002-.886-.463l-.887-.462-.002.003-.01.02-.05.09c-.044.08-.113.201-.207.358-.187.314-.473.768-.857 1.316a26.397 26.397 0 0 1-3.48 4.024C31.403 20.121 26.765 23 20.519 23v2ZM8.643 2.143C5.541 3.974 3.267 6.274 1.77 8.11a25.24 25.24 0 0 0-1.68 2.308 17.748 17.748 0 0 0-.562.939l-.009.015a.37.37 0 0 0-.002.005l-.001.002c0 .001-.001.001.884.467a185.277 185.277 0 0 1 .885.466l.004-.008a4.344 4.344 0 0 1 .109-.193c.08-.14.206-.35.375-.613A23.35 23.35 0 0 1 3.32 9.373c1.393-1.708 3.495-3.829 6.34-5.507L8.643 2.143ZM40 11.846l.875-.484-.001-.002-.003-.005-.008-.015a18.52 18.52 0 0 0-.563-.906 26.565 26.565 0 0 0-1.67-2.24c-1.477-1.785-3.704-4.034-6.693-5.862L30.894 4.04c2.75 1.68 4.815 3.762 6.195 5.43a24.6 24.6 0 0 1 1.543 2.07 16.505 16.505 0 0 1 .468.748l.02.035.005.008.875-.484Zm-8.063-9.514c-2.453-1.5-5.424-2.718-8.912-3.157l-.25 1.985c3.165.398 5.87 1.503 8.119 2.879l1.043-1.707ZM23.025-.825a22.633 22.633 0 0 0-3.07-.174l.022 2c.971-.01 1.904.046 2.798.159l.25-1.985Zm-3.07-.174c-.861.01-1.696.064-2.503.16l.234 1.986c.737-.087 1.5-.137 2.291-.146l-.021-2Zm-2.503.16a22.383 22.383 0 0 0-8.809 2.982L9.66 3.866a20.383 20.383 0 0 1 8.026-2.72l-.234-1.985Z" fill="#000" mask="url(#a)"/><path d="M31.25 12c0 6.37-4.966 11.5-11.05 11.5-6.085 0-11.05-5.13-11.05-11.5S14.115.5 20.2.5C26.284.5 31.25 5.63 31.25 12Z" stroke="#000"/><ellipse cx="20.2" cy="11.999" rx="3.96" ry="4.114" fill="#000"/></svg>