<svg width="66" height="40" fill="none" xmlns="http://www.w3.org/2000/svg"><mask id="a" fill="#fff"><path d="M33.53 40C9.48 40 0 19.743 0 19.743s4.673-8.886 14.586-14.735C18.453 2.725 23.119.906 28.615.256A37.431 37.431 0 0 1 32.61.002c1.695-.018 3.324.08 4.89.277 5.543.698 10.272 2.634 14.191 5.03C61.257 11.157 66 19.743 66 19.743S55.46 40 33.53 40Z"/></mask><path d="m0 19.743-.885-.465-.231.44.21.449.906-.424Zm66 0 .887.462.248-.476-.26-.47-.875.484ZM14.586 5.008l-.508-.862.508.862Zm37.106.301-.521.854.521-.854ZM37.5.28l-.125.992L37.5.28ZM32.61.002l.011 1-.01-1Zm-3.995.254-.117-.993.117.993ZM0 19.743c-.906.424-.905.425-.905.425v.002l.003.004.007.015a5.953 5.953 0 0 0 .116.234c.08.159.199.387.358.674.318.576.797 1.39 1.446 2.365A41.464 41.464 0 0 0 7.06 30.6C12.578 35.796 21.195 41 33.53 41v-2c-11.715 0-19.863-4.924-25.098-9.855a39.463 39.463 0 0 1-5.743-6.79 31.884 31.884 0 0 1-1.36-2.224 19.887 19.887 0 0 1-.423-.81v-.002L0 19.744ZM33.53 41c11.298 0 19.648-5.224 25.144-10.4a46.652 46.652 0 0 0 6.155-7.118 39.019 39.019 0 0 0 1.534-2.355 25.09 25.09 0 0 0 .52-.916l.003-.004v-.001s.001-.001-.886-.463l-.887-.462v.001a44.667 44.667 0 0 1-7.81 9.861C52.047 34.096 44.163 39 33.531 39v2ZM14.079 4.146c-5.085 3-8.818 6.775-11.277 9.79a41.557 41.557 0 0 0-2.758 3.787A28.908 28.908 0 0 0-.82 19.16l-.046.085c-.005.01-.01.017-.012.023l-.004.007-.001.002v.001l.884.466.885.466.001-.003a1.559 1.559 0 0 1 .045-.081 27.02 27.02 0 0 1 .796-1.321A39.567 39.567 0 0 1 4.35 15.2c2.355-2.89 5.916-6.484 10.743-9.332l-1.016-1.723ZM66 19.743a141.643 141.643 0 0 0 .875-.485l-.002-.002-.003-.006-.013-.023a30.183 30.183 0 0 0-.914-1.47 43.645 43.645 0 0 0-2.74-3.675c-2.43-2.937-6.087-6.629-10.989-9.626l-1.043 1.707c4.663 2.85 8.159 6.375 10.492 9.194a41.637 41.637 0 0 1 2.613 3.506 28.18 28.18 0 0 1 .802 1.282 5.25 5.25 0 0 1 .045.08l.002.002.875-.484ZM52.214 4.456C48.193 1.998 43.33.005 37.624-.714l-.249 1.985c5.383.678 9.978 2.558 13.796 4.892l1.043-1.707ZM37.625-.714A37.057 37.057 0 0 0 32.6-.997l.021 2c1.65-.018 3.234.078 4.754.27l.25-1.985ZM32.6-.997a38.43 38.43 0 0 0-4.102.261l.234 1.986a36.428 36.428 0 0 1 3.89-.247l-.022-2Zm-4.102.261c-5.651.668-10.448 2.54-14.42 4.883l1.016 1.723c3.763-2.22 8.297-3.989 13.638-4.62l-.234-1.986Z" fill="#CECECE" mask="url(#a)"/><path d="M51.75 20c0 10.788-8.413 19.5-18.75 19.5-10.338 0-18.75-8.712-18.75-19.5S22.661.5 33 .5C43.337.5 51.75 9.212 51.75 20Z" stroke="#CECECE"/><ellipse cx="33" cy="20" rx="6.6" ry="6.857" fill="#CECECE"/></svg>