<svg width="180" height="105" fill="none" xmlns="http://www.w3.org/2000/svg"><mask id="a" fill="#fff"><path d="M91.447 105C25.852 105 0 51.826 0 51.826s12.746-23.327 39.78-38.68C50.328 7.153 63.05 2.376 78.04.672c3.51-.398 7.142-.629 10.9-.667a102.12 102.12 0 0 1 13.334.728c15.12 1.831 28.017 6.914 38.706 13.204C167.066 29.287 180 51.826 180 51.826S151.254 105 91.447 105Z"/></mask><path d="m0 51.826-.878-.48-.247.453.226.464.899-.437Zm180 0 .88.476.265-.49-.278-.484-.867.498ZM39.78 13.146l-.494-.87.494.87Zm101.199.791.507-.861-.507.861ZM102.273.733l-.12.993.12-.993ZM88.939.005l.01 1-.01-1ZM78.04.673l-.113-.993.113.993ZM0 51.826c-.9.437-.899.438-.899.439l.002.002a4.055 4.055 0 0 0 .02.042 19.661 19.661 0 0 0 .299.58c.21.4.526.982.95 1.72a86.79 86.79 0 0 0 3.87 6.094c3.483 5.035 8.813 11.743 16.212 18.45C35.26 92.579 58.352 106 91.447 106v-2c-32.5 0-55.131-13.165-69.65-26.328-7.264-6.585-12.496-13.17-15.91-18.106a84.787 84.787 0 0 1-3.78-5.953 52.922 52.922 0 0 1-1.139-2.086 14.844 14.844 0 0 1-.053-.107l-.013-.025-.002-.006-.9.437ZM91.447 106c30.223 0 52.59-13.441 67.376-26.846a122.24 122.24 0 0 0 16.559-18.431 100.798 100.798 0 0 0 4.116-6.085 63.727 63.727 0 0 0 1.291-2.172 18.232 18.232 0 0 0 .084-.152l.005-.008.001-.003s.001-.001-.879-.477l-.88-.476v.001a.018.018 0 0 0-.003.006l-.014.026a21.28 21.28 0 0 1-.306.54c-.22.38-.553.943-.999 1.66a98.72 98.72 0 0 1-4.032 5.963 120.284 120.284 0 0 1-16.287 18.126C142.94 90.854 121.031 104 91.447 104v2ZM39.286 12.275C25.64 20.025 15.609 29.782 8.989 37.597c-3.31 3.909-5.772 7.336-7.407 9.79a73.898 73.898 0 0 0-1.839 2.892 43.215 43.215 0 0 0-.609 1.046l-.008.015-.002.004-.001.002.877.48.877.48.002-.003a44.006 44.006 0 0 0 .031-.056l.108-.19c.096-.169.243-.42.44-.748.393-.656.989-1.614 1.788-2.813 1.6-2.4 4.014-5.764 7.27-9.606 6.51-7.688 16.369-17.271 29.757-24.875l-.987-1.74ZM180 51.826l.867-.498-.001-.002-.002-.004-.008-.014a1.094 1.094 0 0 1-.031-.053l-.119-.2c-.104-.174-.259-.43-.465-.758a77.576 77.576 0 0 0-1.846-2.8 113.335 113.335 0 0 0-7.365-9.51c-6.544-7.613-16.381-17.166-29.544-24.912l-1.014 1.724c12.924 7.605 22.598 16.996 29.042 24.491 3.221 3.746 5.631 7.014 7.234 9.342a76.837 76.837 0 0 1 1.798 2.726c.198.318.347.562.444.725.049.082.086.143.109.184l.026.044a.123.123 0 0 1 .006.01l.002.003.867-.498Zm-38.514-38.75C130.696 6.725 117.669 1.59 102.393-.26l-.24 1.986c14.965 1.812 27.731 6.843 38.319 13.073l1.014-1.723ZM102.393-.26c-4.31-.522-8.798-.782-13.464-.734l.02 2c4.578-.047 8.98.208 13.204.72l.24-1.986ZM88.929-.994c-3.792.038-7.459.27-11.001.674l.226 1.987c3.474-.395 7.072-.624 10.795-.662l-.02-2ZM77.928-.32c-15.14 1.72-27.99 6.546-38.642 12.595l.987 1.74c10.445-5.932 23.04-10.661 37.88-12.348L77.929-.32Z" fill="#CECECE" mask="url(#a)"/><circle cx="90" cy="52.5" r="52" stroke="#CECECE"/><circle cx="90" cy="52.5" r="18" fill="#CECECE"/></svg>