<svg width="120" height="120" fill="none" xmlns="http://www.w3.org/2000/svg"><path d="m60 0 .82 55.88L82.96 4.568l-20.628 51.94 40.093-38.933-38.934 40.093 51.941-20.628-51.314 22.142L120 60l-55.88.82 51.313 22.141-51.94-20.628 38.933 40.093-40.093-38.934 20.628 51.941-22.142-51.314L60 120l-.82-55.88-22.141 51.313 20.628-51.94-40.093 38.933 38.934-40.093-51.94 20.628L55.88 60.819 0 60l55.88-.82L4.568 37.04l51.94 20.628-38.933-40.093 40.093 38.934L37.04 4.569 59.181 55.88 60 0Z" fill="#CECECE"/></svg>